solid OpenSCAD_Model
  facet normal 0 0 1
    outer loop
      vertex 6.66512 7.03015 10
      vertex -6.66512 7.03015 10
      vertex 6.66512 -7.03015 10
    endloop
  endfacet
  facet normal 0 0 1
    outer loop
      vertex 6.66512 -7.03015 10
      vertex -6.43076 -7.49012 10
      vertex -6.35 -8 10
    endloop
  endfacet
  facet normal 0 0 1
    outer loop
      vertex -6.66512 -7.03015 10
      vertex 6.66512 -7.03015 10
      vertex -6.66512 7.03015 10
    endloop
  endfacet
  facet normal 0 0 1
    outer loop
      vertex 6.66512 -7.03015 10
      vertex -6.66512 -7.03015 10
      vertex -6.43076 -7.49012 10
    endloop
  endfacet
  facet normal -0 0 1
    outer loop
      vertex -7.03015 6.66512 10
      vertex -6.66512 -7.03015 10
      vertex -6.66512 7.03015 10
    endloop
  endfacet
  facet normal 0 0 1
    outer loop
      vertex -7.03015 6.66512 10
      vertex -7.03015 -6.66512 10
      vertex -6.66512 -7.03015 10
    endloop
  endfacet
  facet normal -0 0 1
    outer loop
      vertex -7.49012 6.43076 10
      vertex -7.03015 -6.66512 10
      vertex -7.03015 6.66512 10
    endloop
  endfacet
  facet normal 0 0 1
    outer loop
      vertex -7.49012 6.43076 10
      vertex -7.49012 -6.43076 10
      vertex -7.03015 -6.66512 10
    endloop
  endfacet
  facet normal -0 0 1
    outer loop
      vertex -8 6.35 10
      vertex -7.49012 -6.43076 10
      vertex -7.49012 6.43076 10
    endloop
  endfacet
  facet normal 0 0 1
    outer loop
      vertex -8 6.35 10
      vertex -8 -6.35 10
      vertex -7.49012 -6.43076 10
    endloop
  endfacet
  facet normal 0 0 1
    outer loop
      vertex -8.50988 6.43076 10
      vertex -8 -6.35 10
      vertex -8 6.35 10
    endloop
  endfacet
  facet normal 0 0 1
    outer loop
      vertex -8.50988 6.43076 10
      vertex -8.50988 -6.43076 10
      vertex -8 -6.35 10
    endloop
  endfacet
  facet normal 0 0 1
    outer loop
      vertex -8.96984 6.66512 10
      vertex -8.50988 -6.43076 10
      vertex -8.50988 6.43076 10
    endloop
  endfacet
  facet normal 0 0 1
    outer loop
      vertex -8.96984 6.66512 10
      vertex -8.96984 -6.66512 10
      vertex -8.50988 -6.43076 10
    endloop
  endfacet
  facet normal 0 0 1
    outer loop
      vertex -9.33488 7.03015 10
      vertex -8.96984 -6.66512 10
      vertex -8.96984 6.66512 10
    endloop
  endfacet
  facet normal 0 0 1
    outer loop
      vertex -9.33488 7.03015 10
      vertex -9.33488 -7.03015 10
      vertex -8.96984 -6.66512 10
    endloop
  endfacet
  facet normal 0 0 1
    outer loop
      vertex -9.56924 7.49012 10
      vertex -9.33488 -7.03015 10
      vertex -9.33488 7.03015 10
    endloop
  endfacet
  facet normal 0 0 1
    outer loop
      vertex -9.56924 7.49012 10
      vertex -9.56924 -7.49012 10
      vertex -9.33488 -7.03015 10
    endloop
  endfacet
  facet normal 0 0 1
    outer loop
      vertex -24 24 10
      vertex -9.56924 7.49012 10
      vertex -9.65 8 10
    endloop
  endfacet
  facet normal 0 0 1
    outer loop
      vertex -9.56924 7.49012 10
      vertex -24 24 10
      vertex -9.56924 -7.49012 10
    endloop
  endfacet
  facet normal -0 0 1
    outer loop
      vertex 9.56924 -7.49012 10
      vertex 24 -24 10
      vertex 9.56924 7.49012 10
    endloop
  endfacet
  facet normal 0 0 1
    outer loop
      vertex 24 -24 10
      vertex 9.56924 -7.49012 10
      vertex 9.65 -8 10
    endloop
  endfacet
  facet normal -0 0 1
    outer loop
      vertex 9.33488 7.03015 10
      vertex 9.56924 -7.49012 10
      vertex 9.56924 7.49012 10
    endloop
  endfacet
  facet normal 0 0 1
    outer loop
      vertex 9.33488 7.03015 10
      vertex 9.33488 -7.03015 10
      vertex 9.56924 -7.49012 10
    endloop
  endfacet
  facet normal -0 0 1
    outer loop
      vertex 8.96984 6.66512 10
      vertex 9.33488 -7.03015 10
      vertex 9.33488 7.03015 10
    endloop
  endfacet
  facet normal 0 0 1
    outer loop
      vertex 8.96984 6.66512 10
      vertex 8.96984 -6.66512 10
      vertex 9.33488 -7.03015 10
    endloop
  endfacet
  facet normal -0 0 1
    outer loop
      vertex 8.50988 6.43076 10
      vertex 8.96984 -6.66512 10
      vertex 8.96984 6.66512 10
    endloop
  endfacet
  facet normal 0 0 1
    outer loop
      vertex 8.50988 6.43076 10
      vertex 8.50988 -6.43076 10
      vertex 8.96984 -6.66512 10
    endloop
  endfacet
  facet normal -0 0 1
    outer loop
      vertex 8 6.35 10
      vertex 8.50988 -6.43076 10
      vertex 8.50988 6.43076 10
    endloop
  endfacet
  facet normal 0 0 1
    outer loop
      vertex 8 6.35 10
      vertex 8 -6.35 10
      vertex 8.50988 -6.43076 10
    endloop
  endfacet
  facet normal 0 0 1
    outer loop
      vertex 7.49012 6.43076 10
      vertex 8 -6.35 10
      vertex 8 6.35 10
    endloop
  endfacet
  facet normal 0 0 1
    outer loop
      vertex 7.49012 6.43076 10
      vertex 7.49012 -6.43076 10
      vertex 8 -6.35 10
    endloop
  endfacet
  facet normal 0 0 1
    outer loop
      vertex 7.03015 6.66512 10
      vertex 7.49012 -6.43076 10
      vertex 7.49012 6.43076 10
    endloop
  endfacet
  facet normal 0 0 1
    outer loop
      vertex 7.03015 6.66512 10
      vertex 7.03015 -6.66512 10
      vertex 7.49012 -6.43076 10
    endloop
  endfacet
  facet normal 0 0 1
    outer loop
      vertex 6.66512 7.03015 10
      vertex 7.03015 -6.66512 10
      vertex 7.03015 6.66512 10
    endloop
  endfacet
  facet normal 0 0 1
    outer loop
      vertex 6.66512 7.03015 10
      vertex 6.66512 -7.03015 10
      vertex 7.03015 -6.66512 10
    endloop
  endfacet
  facet normal 0 0 1
    outer loop
      vertex -6.43076 7.49012 10
      vertex 6.43076 7.49012 10
      vertex -6.35 8 10
    endloop
  endfacet
  facet normal 0 0 1
    outer loop
      vertex 6.43076 7.49012 10
      vertex -6.43076 7.49012 10
      vertex 6.66512 7.03015 10
    endloop
  endfacet
  facet normal -0 0 1
    outer loop
      vertex -6.35 8 10
      vertex 6.43076 7.49012 10
      vertex 6.35 8 10
    endloop
  endfacet
  facet normal 0 0 1
    outer loop
      vertex -6.66512 7.03015 10
      vertex 6.66512 7.03015 10
      vertex -6.43076 7.49012 10
    endloop
  endfacet
  facet normal 0 0 1
    outer loop
      vertex 9.56924 7.49012 10
      vertex 24 24 10
      vertex 9.65 8 10
    endloop
  endfacet
  facet normal 0 0 1
    outer loop
      vertex 24 24 10
      vertex 9.56924 8.50988 10
      vertex 9.65 8 10
    endloop
  endfacet
  facet normal 0 0 1
    outer loop
      vertex 24 24 10
      vertex 9.33488 8.96984 10
      vertex 9.56924 8.50988 10
    endloop
  endfacet
  facet normal 0 0 1
    outer loop
      vertex 24 24 10
      vertex 8.96984 9.33488 10
      vertex 9.33488 8.96984 10
    endloop
  endfacet
  facet normal 0 0 1
    outer loop
      vertex 24 24 10
      vertex 8.50988 9.56924 10
      vertex 8.96984 9.33488 10
    endloop
  endfacet
  facet normal 0 0 1
    outer loop
      vertex 24 24 10
      vertex 8 9.65 10
      vertex 8.50988 9.56924 10
    endloop
  endfacet
  facet normal 0 0 1
    outer loop
      vertex 24 24 10
      vertex 7.49012 9.56924 10
      vertex 8 9.65 10
    endloop
  endfacet
  facet normal 0 0 1
    outer loop
      vertex -7.49012 9.56924 10
      vertex 7.49012 9.56924 10
      vertex 24 24 10
    endloop
  endfacet
  facet normal 0 0 1
    outer loop
      vertex 6.66512 -7.03015 10
      vertex -6.35 -8 10
      vertex 6.43076 -7.49012 10
    endloop
  endfacet
  facet normal 0 0 1
    outer loop
      vertex 6.43076 8.50988 10
      vertex -6.35 8 10
      vertex 6.35 8 10
    endloop
  endfacet
  facet normal 0 0 1
    outer loop
      vertex -6.43076 8.50988 10
      vertex 6.43076 8.50988 10
      vertex 6.66512 8.96984 10
    endloop
  endfacet
  facet normal 0 0 1
    outer loop
      vertex -6.66512 8.96984 10
      vertex 6.66512 8.96984 10
      vertex 7.03015 9.33488 10
    endloop
  endfacet
  facet normal 0 0 1
    outer loop
      vertex 7.49012 9.56924 10
      vertex -7.49012 9.56924 10
      vertex 7.03015 9.33488 10
    endloop
  endfacet
  facet normal 0 0 1
    outer loop
      vertex 6.43076 8.50988 10
      vertex -6.43076 8.50988 10
      vertex -6.35 8 10
    endloop
  endfacet
  facet normal 0 0 1
    outer loop
      vertex 6.66512 8.96984 10
      vertex -6.66512 8.96984 10
      vertex -6.43076 8.50988 10
    endloop
  endfacet
  facet normal 0 0 1
    outer loop
      vertex 7.03015 9.33488 10
      vertex -7.03015 9.33488 10
      vertex -6.66512 8.96984 10
    endloop
  endfacet
  facet normal 0 0 1
    outer loop
      vertex 7.03015 9.33488 10
      vertex -7.49012 9.56924 10
      vertex -7.03015 9.33488 10
    endloop
  endfacet
  facet normal -0 0 1
    outer loop
      vertex -24 24 10
      vertex -7.49012 9.56924 10
      vertex 24 24 10
    endloop
  endfacet
  facet normal 0 0 1
    outer loop
      vertex -7.49012 9.56924 10
      vertex -24 24 10
      vertex -8 9.65 10
    endloop
  endfacet
  facet normal 0 0 1
    outer loop
      vertex -24 -24 10
      vertex -9.56924 -7.49012 10
      vertex -24 24 10
    endloop
  endfacet
  facet normal 0 0 1
    outer loop
      vertex -9.56924 8.50988 10
      vertex -24 24 10
      vertex -9.65 8 10
    endloop
  endfacet
  facet normal 0 0 1
    outer loop
      vertex -9.33488 8.96984 10
      vertex -24 24 10
      vertex -9.56924 8.50988 10
    endloop
  endfacet
  facet normal 0 0 1
    outer loop
      vertex -8.96984 9.33488 10
      vertex -24 24 10
      vertex -9.33488 8.96984 10
    endloop
  endfacet
  facet normal 0 0 1
    outer loop
      vertex -8.50988 9.56924 10
      vertex -24 24 10
      vertex -8.96984 9.33488 10
    endloop
  endfacet
  facet normal 0 0 1
    outer loop
      vertex -8 9.65 10
      vertex -24 24 10
      vertex -8.50988 9.56924 10
    endloop
  endfacet
  facet normal 0 0 1
    outer loop
      vertex 24 24 10
      vertex 9.56924 7.49012 10
      vertex 24 -24 10
    endloop
  endfacet
  facet normal -0 0 1
    outer loop
      vertex 9.56924 -8.50988 10
      vertex 24 -24 10
      vertex 9.65 -8 10
    endloop
  endfacet
  facet normal -0 0 1
    outer loop
      vertex 9.33488 -8.96984 10
      vertex 24 -24 10
      vertex 9.56924 -8.50988 10
    endloop
  endfacet
  facet normal -0 0 1
    outer loop
      vertex 8.96984 -9.33488 10
      vertex 24 -24 10
      vertex 9.33488 -8.96984 10
    endloop
  endfacet
  facet normal -0 0 1
    outer loop
      vertex 8.50988 -9.56924 10
      vertex 24 -24 10
      vertex 8.96984 -9.33488 10
    endloop
  endfacet
  facet normal -0 0 1
    outer loop
      vertex 8 -9.65 10
      vertex 24 -24 10
      vertex 8.50988 -9.56924 10
    endloop
  endfacet
  facet normal 0 0 1
    outer loop
      vertex 7.49012 -9.56924 10
      vertex 24 -24 10
      vertex 8 -9.65 10
    endloop
  endfacet
  facet normal 0 0 1
    outer loop
      vertex -7.49012 -9.56924 10
      vertex 7.49012 -9.56924 10
      vertex 7.03015 -9.33488 10
    endloop
  endfacet
  facet normal 0 0 1
    outer loop
      vertex 6.43076 -7.49012 10
      vertex -6.35 -8 10
      vertex 6.35 -8 10
    endloop
  endfacet
  facet normal 0 0 1
    outer loop
      vertex 6.35 -8 10
      vertex -6.35 -8 10
      vertex 6.43076 -8.50988 10
    endloop
  endfacet
  facet normal 0 0 1
    outer loop
      vertex -6.43076 -8.50988 10
      vertex 6.43076 -8.50988 10
      vertex -6.35 -8 10
    endloop
  endfacet
  facet normal 0 0 1
    outer loop
      vertex 6.43076 -8.50988 10
      vertex -6.43076 -8.50988 10
      vertex 6.66512 -8.96984 10
    endloop
  endfacet
  facet normal 0 0 1
    outer loop
      vertex -6.66512 -8.96984 10
      vertex 6.66512 -8.96984 10
      vertex -6.43076 -8.50988 10
    endloop
  endfacet
  facet normal 0 0 1
    outer loop
      vertex 6.66512 -8.96984 10
      vertex -6.66512 -8.96984 10
      vertex 7.03015 -9.33488 10
    endloop
  endfacet
  facet normal 0 0 1
    outer loop
      vertex -7.03015 -9.33488 10
      vertex 7.03015 -9.33488 10
      vertex -6.66512 -8.96984 10
    endloop
  endfacet
  facet normal 0 0 1
    outer loop
      vertex -7.49012 -9.56924 10
      vertex 7.03015 -9.33488 10
      vertex -7.03015 -9.33488 10
    endloop
  endfacet
  facet normal 0 0 1
    outer loop
      vertex 7.49012 -9.56924 10
      vertex -7.49012 -9.56924 10
      vertex 24 -24 10
    endloop
  endfacet
  facet normal 0 0 1
    outer loop
      vertex -24 -24 10
      vertex -7.49012 -9.56924 10
      vertex -8 -9.65 10
    endloop
  endfacet
  facet normal 0 0 1
    outer loop
      vertex -24 -24 10
      vertex -8 -9.65 10
      vertex -8.50988 -9.56924 10
    endloop
  endfacet
  facet normal 0 0 1
    outer loop
      vertex -9.56924 -7.49012 10
      vertex -24 -24 10
      vertex -9.65 -8 10
    endloop
  endfacet
  facet normal 0 0 1
    outer loop
      vertex -7.49012 -9.56924 10
      vertex -24 -24 10
      vertex 24 -24 10
    endloop
  endfacet
  facet normal 0 0 1
    outer loop
      vertex -8.96984 -9.33488 10
      vertex -24 -24 10
      vertex -8.50988 -9.56924 10
    endloop
  endfacet
  facet normal 0 0 1
    outer loop
      vertex -9.33488 -8.96984 10
      vertex -24 -24 10
      vertex -8.96984 -9.33488 10
    endloop
  endfacet
  facet normal 0 0 1
    outer loop
      vertex -9.56924 -8.50988 10
      vertex -24 -24 10
      vertex -9.33488 -8.96984 10
    endloop
  endfacet
  facet normal 0 0 1
    outer loop
      vertex -9.65 -8 10
      vertex -24 -24 10
      vertex -9.56924 -8.50988 10
    endloop
  endfacet
  facet normal 1 -0 0
    outer loop
      vertex 24 -24 10
      vertex 24 24 0
      vertex 24 24 10
    endloop
  endfacet
  facet normal 1 0 0
    outer loop
      vertex 24 24 0
      vertex 24 -24 10
      vertex 24 -24 0
    endloop
  endfacet
  facet normal 0 1 -0
    outer loop
      vertex 24 24 0
      vertex -24 24 10
      vertex 24 24 10
    endloop
  endfacet
  facet normal 0 1 0
    outer loop
      vertex -24 24 10
      vertex 24 24 0
      vertex -24 24 0
    endloop
  endfacet
  facet normal 0 0 -1
    outer loop
      vertex 6.66512 -7.03015 0
      vertex -6.66512 -7.03015 0
      vertex 6.66512 7.03015 0
    endloop
  endfacet
  facet normal 0 0 -1
    outer loop
      vertex 6.66512 7.03015 0
      vertex -6.43076 7.49012 0
      vertex -6.35 8 0
    endloop
  endfacet
  facet normal 0 0 -1
    outer loop
      vertex -6.66512 7.03015 0
      vertex 6.66512 7.03015 0
      vertex -6.66512 -7.03015 0
    endloop
  endfacet
  facet normal 0 0 -1
    outer loop
      vertex 6.66512 7.03015 0
      vertex -6.66512 7.03015 0
      vertex -6.43076 7.49012 0
    endloop
  endfacet
  facet normal 0 0 -1
    outer loop
      vertex -7.03015 -6.66512 0
      vertex -6.66512 7.03015 0
      vertex -6.66512 -7.03015 0
    endloop
  endfacet
  facet normal 0 0 -1
    outer loop
      vertex -7.03015 -6.66512 0
      vertex -7.03015 6.66512 0
      vertex -6.66512 7.03015 0
    endloop
  endfacet
  facet normal 0 0 -1
    outer loop
      vertex -7.49012 -6.43076 0
      vertex -7.03015 6.66512 0
      vertex -7.03015 -6.66512 0
    endloop
  endfacet
  facet normal 0 0 -1
    outer loop
      vertex -7.49012 -6.43076 0
      vertex -7.49012 6.43076 0
      vertex -7.03015 6.66512 0
    endloop
  endfacet
  facet normal 0 0 -1
    outer loop
      vertex -8 -6.35 0
      vertex -7.49012 6.43076 0
      vertex -7.49012 -6.43076 0
    endloop
  endfacet
  facet normal 0 0 -1
    outer loop
      vertex -8 -6.35 0
      vertex -8 6.35 0
      vertex -7.49012 6.43076 0
    endloop
  endfacet
  facet normal 0 0 -1
    outer loop
      vertex -8.50988 -6.43076 0
      vertex -8 6.35 0
      vertex -8 -6.35 0
    endloop
  endfacet
  facet normal 0 0 -1
    outer loop
      vertex -8.50988 -6.43076 0
      vertex -8.50988 6.43076 0
      vertex -8 6.35 0
    endloop
  endfacet
  facet normal 0 0 -1
    outer loop
      vertex -8.96984 -6.66512 0
      vertex -8.50988 6.43076 0
      vertex -8.50988 -6.43076 0
    endloop
  endfacet
  facet normal 0 0 -1
    outer loop
      vertex -8.96984 -6.66512 0
      vertex -8.96984 6.66512 0
      vertex -8.50988 6.43076 0
    endloop
  endfacet
  facet normal 0 0 -1
    outer loop
      vertex -9.33488 -7.03015 0
      vertex -8.96984 6.66512 0
      vertex -8.96984 -6.66512 0
    endloop
  endfacet
  facet normal 0 0 -1
    outer loop
      vertex -9.33488 -7.03015 0
      vertex -9.33488 7.03015 0
      vertex -8.96984 6.66512 0
    endloop
  endfacet
  facet normal 0 0 -1
    outer loop
      vertex -9.56924 -7.49012 0
      vertex -9.33488 7.03015 0
      vertex -9.33488 -7.03015 0
    endloop
  endfacet
  facet normal 0 0 -1
    outer loop
      vertex -9.56924 -7.49012 0
      vertex -9.56924 7.49012 0
      vertex -9.33488 7.03015 0
    endloop
  endfacet
  facet normal 0 0 -1
    outer loop
      vertex -24 -24 0
      vertex -9.56924 -7.49012 0
      vertex -9.65 -8 0
    endloop
  endfacet
  facet normal -0 0 -1
    outer loop
      vertex -9.56924 -7.49012 0
      vertex -24 -24 0
      vertex -9.56924 7.49012 0
    endloop
  endfacet
  facet normal 0 0 -1
    outer loop
      vertex 9.56924 7.49012 0
      vertex 24 24 0
      vertex 9.56924 -7.49012 0
    endloop
  endfacet
  facet normal 0 0 -1
    outer loop
      vertex 24 24 0
      vertex 9.56924 7.49012 0
      vertex 9.65 8 0
    endloop
  endfacet
  facet normal 0 0 -1
    outer loop
      vertex 9.33488 -7.03015 0
      vertex 9.56924 7.49012 0
      vertex 9.56924 -7.49012 0
    endloop
  endfacet
  facet normal 0 0 -1
    outer loop
      vertex 9.33488 -7.03015 0
      vertex 9.33488 7.03015 0
      vertex 9.56924 7.49012 0
    endloop
  endfacet
  facet normal 0 0 -1
    outer loop
      vertex 8.96984 -6.66512 0
      vertex 9.33488 7.03015 0
      vertex 9.33488 -7.03015 0
    endloop
  endfacet
  facet normal 0 0 -1
    outer loop
      vertex 8.96984 -6.66512 0
      vertex 8.96984 6.66512 0
      vertex 9.33488 7.03015 0
    endloop
  endfacet
  facet normal 0 0 -1
    outer loop
      vertex 8.50988 -6.43076 0
      vertex 8.96984 6.66512 0
      vertex 8.96984 -6.66512 0
    endloop
  endfacet
  facet normal 0 0 -1
    outer loop
      vertex 8.50988 -6.43076 0
      vertex 8.50988 6.43076 0
      vertex 8.96984 6.66512 0
    endloop
  endfacet
  facet normal 0 0 -1
    outer loop
      vertex 8 -6.35 0
      vertex 8.50988 6.43076 0
      vertex 8.50988 -6.43076 0
    endloop
  endfacet
  facet normal 0 0 -1
    outer loop
      vertex 8 -6.35 0
      vertex 8 6.35 0
      vertex 8.50988 6.43076 0
    endloop
  endfacet
  facet normal 0 0 -1
    outer loop
      vertex 7.49012 -6.43076 0
      vertex 8 6.35 0
      vertex 8 -6.35 0
    endloop
  endfacet
  facet normal 0 0 -1
    outer loop
      vertex 7.49012 -6.43076 0
      vertex 7.49012 6.43076 0
      vertex 8 6.35 0
    endloop
  endfacet
  facet normal 0 0 -1
    outer loop
      vertex 7.03015 -6.66512 0
      vertex 7.49012 6.43076 0
      vertex 7.49012 -6.43076 0
    endloop
  endfacet
  facet normal 0 0 -1
    outer loop
      vertex 7.03015 -6.66512 0
      vertex 7.03015 6.66512 0
      vertex 7.49012 6.43076 0
    endloop
  endfacet
  facet normal 0 0 -1
    outer loop
      vertex 6.66512 -7.03015 0
      vertex 7.03015 6.66512 0
      vertex 7.03015 -6.66512 0
    endloop
  endfacet
  facet normal 0 0 -1
    outer loop
      vertex 6.66512 -7.03015 0
      vertex 6.66512 7.03015 0
      vertex 7.03015 6.66512 0
    endloop
  endfacet
  facet normal 0 0 -1
    outer loop
      vertex -6.43076 -7.49012 0
      vertex 6.43076 -7.49012 0
      vertex -6.35 -8 0
    endloop
  endfacet
  facet normal 0 0 -1
    outer loop
      vertex 6.43076 -7.49012 0
      vertex -6.43076 -7.49012 0
      vertex 6.66512 -7.03015 0
    endloop
  endfacet
  facet normal 0 0 -1
    outer loop
      vertex -6.35 -8 0
      vertex 6.43076 -7.49012 0
      vertex 6.35 -8 0
    endloop
  endfacet
  facet normal 0 0 -1
    outer loop
      vertex -6.66512 -7.03015 0
      vertex 6.66512 -7.03015 0
      vertex -6.43076 -7.49012 0
    endloop
  endfacet
  facet normal 0 0 -1
    outer loop
      vertex 9.56924 -7.49012 0
      vertex 24 -24 0
      vertex 9.65 -8 0
    endloop
  endfacet
  facet normal 0 0 -1
    outer loop
      vertex 24 -24 0
      vertex 9.56924 -8.50988 0
      vertex 9.65 -8 0
    endloop
  endfacet
  facet normal 0 0 -1
    outer loop
      vertex 24 -24 0
      vertex 9.33488 -8.96984 0
      vertex 9.56924 -8.50988 0
    endloop
  endfacet
  facet normal 0 0 -1
    outer loop
      vertex 24 -24 0
      vertex 8.96984 -9.33488 0
      vertex 9.33488 -8.96984 0
    endloop
  endfacet
  facet normal 0 0 -1
    outer loop
      vertex 24 -24 0
      vertex 8.50988 -9.56924 0
      vertex 8.96984 -9.33488 0
    endloop
  endfacet
  facet normal 0 0 -1
    outer loop
      vertex 24 -24 0
      vertex 8 -9.65 0
      vertex 8.50988 -9.56924 0
    endloop
  endfacet
  facet normal 0 0 -1
    outer loop
      vertex 24 -24 0
      vertex 7.49012 -9.56924 0
      vertex 8 -9.65 0
    endloop
  endfacet
  facet normal 0 0 -1
    outer loop
      vertex -7.49012 -9.56924 0
      vertex 7.49012 -9.56924 0
      vertex 24 -24 0
    endloop
  endfacet
  facet normal 0 0 -1
    outer loop
      vertex 6.66512 7.03015 0
      vertex -6.35 8 0
      vertex 6.43076 7.49012 0
    endloop
  endfacet
  facet normal 0 0 -1
    outer loop
      vertex 6.43076 -8.50988 0
      vertex -6.35 -8 0
      vertex 6.35 -8 0
    endloop
  endfacet
  facet normal 0 0 -1
    outer loop
      vertex -6.43076 -8.50988 0
      vertex 6.43076 -8.50988 0
      vertex 6.66512 -8.96984 0
    endloop
  endfacet
  facet normal 0 0 -1
    outer loop
      vertex -6.66512 -8.96984 0
      vertex 6.66512 -8.96984 0
      vertex 7.03015 -9.33488 0
    endloop
  endfacet
  facet normal 0 0 -1
    outer loop
      vertex 7.49012 -9.56924 0
      vertex -7.49012 -9.56924 0
      vertex 7.03015 -9.33488 0
    endloop
  endfacet
  facet normal 0 0 -1
    outer loop
      vertex 6.43076 -8.50988 0
      vertex -6.43076 -8.50988 0
      vertex -6.35 -8 0
    endloop
  endfacet
  facet normal 0 0 -1
    outer loop
      vertex 6.66512 -8.96984 0
      vertex -6.66512 -8.96984 0
      vertex -6.43076 -8.50988 0
    endloop
  endfacet
  facet normal 0 0 -1
    outer loop
      vertex 7.03015 -9.33488 0
      vertex -7.03015 -9.33488 0
      vertex -6.66512 -8.96984 0
    endloop
  endfacet
  facet normal -0 0 -1
    outer loop
      vertex 7.03015 -9.33488 0
      vertex -7.49012 -9.56924 0
      vertex -7.03015 -9.33488 0
    endloop
  endfacet
  facet normal 0 0 -1
    outer loop
      vertex -24 -24 0
      vertex -7.49012 -9.56924 0
      vertex 24 -24 0
    endloop
  endfacet
  facet normal 0 0 -1
    outer loop
      vertex -7.49012 -9.56924 0
      vertex -24 -24 0
      vertex -8 -9.65 0
    endloop
  endfacet
  facet normal 0 0 -1
    outer loop
      vertex -24 24 0
      vertex -9.56924 7.49012 0
      vertex -24 -24 0
    endloop
  endfacet
  facet normal -0 0 -1
    outer loop
      vertex -9.56924 -8.50988 0
      vertex -24 -24 0
      vertex -9.65 -8 0
    endloop
  endfacet
  facet normal -0 0 -1
    outer loop
      vertex -9.33488 -8.96984 0
      vertex -24 -24 0
      vertex -9.56924 -8.50988 0
    endloop
  endfacet
  facet normal -0 0 -1
    outer loop
      vertex -8.96984 -9.33488 0
      vertex -24 -24 0
      vertex -9.33488 -8.96984 0
    endloop
  endfacet
  facet normal -0 0 -1
    outer loop
      vertex -8.50988 -9.56924 0
      vertex -24 -24 0
      vertex -8.96984 -9.33488 0
    endloop
  endfacet
  facet normal -0 0 -1
    outer loop
      vertex -8 -9.65 0
      vertex -24 -24 0
      vertex -8.50988 -9.56924 0
    endloop
  endfacet
  facet normal 0 0 -1
    outer loop
      vertex 24 -24 0
      vertex 9.56924 -7.49012 0
      vertex 24 24 0
    endloop
  endfacet
  facet normal 0 0 -1
    outer loop
      vertex 9.56924 8.50988 0
      vertex 24 24 0
      vertex 9.65 8 0
    endloop
  endfacet
  facet normal 0 0 -1
    outer loop
      vertex 9.33488 8.96984 0
      vertex 24 24 0
      vertex 9.56924 8.50988 0
    endloop
  endfacet
  facet normal 0 0 -1
    outer loop
      vertex 8.96984 9.33488 0
      vertex 24 24 0
      vertex 9.33488 8.96984 0
    endloop
  endfacet
  facet normal 0 0 -1
    outer loop
      vertex 8.50988 9.56924 0
      vertex 24 24 0
      vertex 8.96984 9.33488 0
    endloop
  endfacet
  facet normal 0 0 -1
    outer loop
      vertex 8 9.65 0
      vertex 24 24 0
      vertex 8.50988 9.56924 0
    endloop
  endfacet
  facet normal 0 0 -1
    outer loop
      vertex 7.49012 9.56924 0
      vertex 24 24 0
      vertex 8 9.65 0
    endloop
  endfacet
  facet normal 0 0 -1
    outer loop
      vertex -7.49012 9.56924 0
      vertex 7.49012 9.56924 0
      vertex 7.03015 9.33488 0
    endloop
  endfacet
  facet normal 0 0 -1
    outer loop
      vertex 6.43076 7.49012 0
      vertex -6.35 8 0
      vertex 6.35 8 0
    endloop
  endfacet
  facet normal 0 0 -1
    outer loop
      vertex 6.35 8 0
      vertex -6.35 8 0
      vertex 6.43076 8.50988 0
    endloop
  endfacet
  facet normal 0 0 -1
    outer loop
      vertex -6.43076 8.50988 0
      vertex 6.43076 8.50988 0
      vertex -6.35 8 0
    endloop
  endfacet
  facet normal 0 0 -1
    outer loop
      vertex 6.43076 8.50988 0
      vertex -6.43076 8.50988 0
      vertex 6.66512 8.96984 0
    endloop
  endfacet
  facet normal 0 0 -1
    outer loop
      vertex -6.66512 8.96984 0
      vertex 6.66512 8.96984 0
      vertex -6.43076 8.50988 0
    endloop
  endfacet
  facet normal 0 0 -1
    outer loop
      vertex 6.66512 8.96984 0
      vertex -6.66512 8.96984 0
      vertex 7.03015 9.33488 0
    endloop
  endfacet
  facet normal 0 0 -1
    outer loop
      vertex -7.03015 9.33488 0
      vertex 7.03015 9.33488 0
      vertex -6.66512 8.96984 0
    endloop
  endfacet
  facet normal 0 0 -1
    outer loop
      vertex -7.49012 9.56924 0
      vertex 7.03015 9.33488 0
      vertex -7.03015 9.33488 0
    endloop
  endfacet
  facet normal 0 0 -1
    outer loop
      vertex 7.49012 9.56924 0
      vertex -7.49012 9.56924 0
      vertex 24 24 0
    endloop
  endfacet
  facet normal 0 0 -1
    outer loop
      vertex -24 24 0
      vertex -7.49012 9.56924 0
      vertex -8 9.65 0
    endloop
  endfacet
  facet normal 0 0 -1
    outer loop
      vertex -24 24 0
      vertex -8 9.65 0
      vertex -8.50988 9.56924 0
    endloop
  endfacet
  facet normal 0 0 -1
    outer loop
      vertex -9.56924 7.49012 0
      vertex -24 24 0
      vertex -9.65 8 0
    endloop
  endfacet
  facet normal 0 0 -1
    outer loop
      vertex -7.49012 9.56924 0
      vertex -24 24 0
      vertex 24 24 0
    endloop
  endfacet
  facet normal 0 0 -1
    outer loop
      vertex -8.96984 9.33488 0
      vertex -24 24 0
      vertex -8.50988 9.56924 0
    endloop
  endfacet
  facet normal 0 0 -1
    outer loop
      vertex -9.33488 8.96984 0
      vertex -24 24 0
      vertex -8.96984 9.33488 0
    endloop
  endfacet
  facet normal 0 0 -1
    outer loop
      vertex -9.56924 8.50988 0
      vertex -24 24 0
      vertex -9.33488 8.96984 0
    endloop
  endfacet
  facet normal 0 0 -1
    outer loop
      vertex -9.65 8 0
      vertex -24 24 0
      vertex -9.56924 8.50988 0
    endloop
  endfacet
  facet normal -0.987688 -0.156435 0
    outer loop
      vertex 9.65 8 0
      vertex 9.56924 8.50988 10
      vertex 9.56924 8.50988 0
    endloop
  endfacet
  facet normal -0.987688 -0.156435 0
    outer loop
      vertex 9.56924 8.50988 10
      vertex 9.65 8 0
      vertex 9.65 8 10
    endloop
  endfacet
  facet normal 0.891007 0.453989 0
    outer loop
      vertex 6.66512 7.03015 10
      vertex 6.43076 7.49012 0
      vertex 6.43076 7.49012 10
    endloop
  endfacet
  facet normal 0.891007 0.453989 0
    outer loop
      vertex 6.43076 7.49012 0
      vertex 6.66512 7.03015 10
      vertex 6.66512 7.03015 0
    endloop
  endfacet
  facet normal 0.156435 -0.987688 0
    outer loop
      vertex 7.49012 9.56924 0
      vertex 8 9.65 10
      vertex 7.49012 9.56924 10
    endloop
  endfacet
  facet normal 0.156435 -0.987688 0
    outer loop
      vertex 8 9.65 10
      vertex 7.49012 9.56924 0
      vertex 8 9.65 0
    endloop
  endfacet
  facet normal 0.987688 0.156435 0
    outer loop
      vertex 6.43076 7.49012 10
      vertex 6.35 8 0
      vertex 6.35 8 10
    endloop
  endfacet
  facet normal 0.987688 0.156435 0
    outer loop
      vertex 6.35 8 0
      vertex 6.43076 7.49012 10
      vertex 6.43076 7.49012 0
    endloop
  endfacet
  facet normal -0.707107 -0.707107 0
    outer loop
      vertex 9.33488 8.96984 0
      vertex 8.96984 9.33488 10
      vertex 8.96984 9.33488 0
    endloop
  endfacet
  facet normal -0.707107 -0.707107 0
    outer loop
      vertex 8.96984 9.33488 10
      vertex 9.33488 8.96984 0
      vertex 9.33488 8.96984 10
    endloop
  endfacet
  facet normal -0.891007 -0.453989 0
    outer loop
      vertex 9.56924 8.50988 0
      vertex 9.33488 8.96984 10
      vertex 9.33488 8.96984 0
    endloop
  endfacet
  facet normal -0.891007 -0.453989 0
    outer loop
      vertex 9.33488 8.96984 10
      vertex 9.56924 8.50988 0
      vertex 9.56924 8.50988 10
    endloop
  endfacet
  facet normal -0.156435 -0.987688 0
    outer loop
      vertex 8 9.65 0
      vertex 8.50988 9.56924 10
      vertex 8 9.65 10
    endloop
  endfacet
  facet normal -0.156435 -0.987688 -0
    outer loop
      vertex 8.50988 9.56924 10
      vertex 8 9.65 0
      vertex 8.50988 9.56924 0
    endloop
  endfacet
  facet normal 0.453989 -0.891007 0
    outer loop
      vertex 7.03015 9.33488 0
      vertex 7.49012 9.56924 10
      vertex 7.03015 9.33488 10
    endloop
  endfacet
  facet normal 0.453989 -0.891007 0
    outer loop
      vertex 7.49012 9.56924 10
      vertex 7.03015 9.33488 0
      vertex 7.49012 9.56924 0
    endloop
  endfacet
  facet normal 0.987688 -0.156435 0
    outer loop
      vertex 6.35 8 10
      vertex 6.43076 8.50988 0
      vertex 6.43076 8.50988 10
    endloop
  endfacet
  facet normal 0.987688 -0.156435 0
    outer loop
      vertex 6.43076 8.50988 0
      vertex 6.35 8 10
      vertex 6.35 8 0
    endloop
  endfacet
  facet normal 0.707107 -0.707107 0
    outer loop
      vertex 6.66512 8.96984 10
      vertex 7.03015 9.33488 0
      vertex 7.03015 9.33488 10
    endloop
  endfacet
  facet normal 0.707107 -0.707107 0
    outer loop
      vertex 7.03015 9.33488 0
      vertex 6.66512 8.96984 10
      vertex 6.66512 8.96984 0
    endloop
  endfacet
  facet normal -0.453989 -0.891007 0
    outer loop
      vertex 8.50988 9.56924 0
      vertex 8.96984 9.33488 10
      vertex 8.50988 9.56924 10
    endloop
  endfacet
  facet normal -0.453989 -0.891007 -0
    outer loop
      vertex 8.96984 9.33488 10
      vertex 8.50988 9.56924 0
      vertex 8.96984 9.33488 0
    endloop
  endfacet
  facet normal 0.891007 -0.453989 0
    outer loop
      vertex 6.43076 8.50988 10
      vertex 6.66512 8.96984 0
      vertex 6.66512 8.96984 10
    endloop
  endfacet
  facet normal 0.891007 -0.453989 0
    outer loop
      vertex 6.66512 8.96984 0
      vertex 6.43076 8.50988 10
      vertex 6.43076 8.50988 0
    endloop
  endfacet
  facet normal -0.891007 0.453989 0
    outer loop
      vertex 9.33488 7.03015 0
      vertex 9.56924 7.49012 10
      vertex 9.56924 7.49012 0
    endloop
  endfacet
  facet normal -0.891007 0.453989 0
    outer loop
      vertex 9.56924 7.49012 10
      vertex 9.33488 7.03015 0
      vertex 9.33488 7.03015 10
    endloop
  endfacet
  facet normal 0.453989 0.891007 -0
    outer loop
      vertex 7.49012 6.43076 0
      vertex 7.03015 6.66512 10
      vertex 7.49012 6.43076 10
    endloop
  endfacet
  facet normal 0.453989 0.891007 0
    outer loop
      vertex 7.03015 6.66512 10
      vertex 7.49012 6.43076 0
      vertex 7.03015 6.66512 0
    endloop
  endfacet
  facet normal 0.707107 0.707107 0
    outer loop
      vertex 7.03015 6.66512 10
      vertex 6.66512 7.03015 0
      vertex 6.66512 7.03015 10
    endloop
  endfacet
  facet normal 0.707107 0.707107 0
    outer loop
      vertex 6.66512 7.03015 0
      vertex 7.03015 6.66512 10
      vertex 7.03015 6.66512 0
    endloop
  endfacet
  facet normal -0.453989 0.891007 0
    outer loop
      vertex 8.96984 6.66512 0
      vertex 8.50988 6.43076 10
      vertex 8.96984 6.66512 10
    endloop
  endfacet
  facet normal -0.453989 0.891007 0
    outer loop
      vertex 8.50988 6.43076 10
      vertex 8.96984 6.66512 0
      vertex 8.50988 6.43076 0
    endloop
  endfacet
  facet normal -0.707107 0.707107 0
    outer loop
      vertex 8.96984 6.66512 0
      vertex 9.33488 7.03015 10
      vertex 9.33488 7.03015 0
    endloop
  endfacet
  facet normal -0.707107 0.707107 0
    outer loop
      vertex 9.33488 7.03015 10
      vertex 8.96984 6.66512 0
      vertex 8.96984 6.66512 10
    endloop
  endfacet
  facet normal -0.987688 0.156435 0
    outer loop
      vertex 9.56924 7.49012 0
      vertex 9.65 8 10
      vertex 9.65 8 0
    endloop
  endfacet
  facet normal -0.987688 0.156435 0
    outer loop
      vertex 9.65 8 10
      vertex 9.56924 7.49012 0
      vertex 9.56924 7.49012 10
    endloop
  endfacet
  facet normal -0.156435 0.987688 0
    outer loop
      vertex 8.50988 6.43076 0
      vertex 8 6.35 10
      vertex 8.50988 6.43076 10
    endloop
  endfacet
  facet normal -0.156435 0.987688 0
    outer loop
      vertex 8 6.35 10
      vertex 8.50988 6.43076 0
      vertex 8 6.35 0
    endloop
  endfacet
  facet normal 0.156435 0.987688 -0
    outer loop
      vertex 8 6.35 0
      vertex 7.49012 6.43076 10
      vertex 8 6.35 10
    endloop
  endfacet
  facet normal 0.156435 0.987688 0
    outer loop
      vertex 7.49012 6.43076 10
      vertex 8 6.35 0
      vertex 7.49012 6.43076 0
    endloop
  endfacet
  facet normal -1 0 0
    outer loop
      vertex -24 -24 0
      vertex -24 24 10
      vertex -24 24 0
    endloop
  endfacet
  facet normal -1 -0 0
    outer loop
      vertex -24 24 10
      vertex -24 -24 0
      vertex -24 -24 10
    endloop
  endfacet
  facet normal 0.987688 -0.156435 0
    outer loop
      vertex -9.65 8 10
      vertex -9.56924 8.50988 0
      vertex -9.56924 8.50988 10
    endloop
  endfacet
  facet normal 0.987688 -0.156435 0
    outer loop
      vertex -9.56924 8.50988 0
      vertex -9.65 8 10
      vertex -9.65 8 0
    endloop
  endfacet
  facet normal -0.891007 0.453989 0
    outer loop
      vertex -6.66512 7.03015 0
      vertex -6.43076 7.49012 10
      vertex -6.43076 7.49012 0
    endloop
  endfacet
  facet normal -0.891007 0.453989 0
    outer loop
      vertex -6.43076 7.49012 10
      vertex -6.66512 7.03015 0
      vertex -6.66512 7.03015 10
    endloop
  endfacet
  facet normal -0.156435 -0.987688 0
    outer loop
      vertex -8 9.65 0
      vertex -7.49012 9.56924 10
      vertex -8 9.65 10
    endloop
  endfacet
  facet normal -0.156435 -0.987688 -0
    outer loop
      vertex -7.49012 9.56924 10
      vertex -8 9.65 0
      vertex -7.49012 9.56924 0
    endloop
  endfacet
  facet normal -0.987688 0.156435 0
    outer loop
      vertex -6.43076 7.49012 0
      vertex -6.35 8 10
      vertex -6.35 8 0
    endloop
  endfacet
  facet normal -0.987688 0.156435 0
    outer loop
      vertex -6.35 8 10
      vertex -6.43076 7.49012 0
      vertex -6.43076 7.49012 10
    endloop
  endfacet
  facet normal 0.707107 -0.707107 0
    outer loop
      vertex -9.33488 8.96984 10
      vertex -8.96984 9.33488 0
      vertex -8.96984 9.33488 10
    endloop
  endfacet
  facet normal 0.707107 -0.707107 0
    outer loop
      vertex -8.96984 9.33488 0
      vertex -9.33488 8.96984 10
      vertex -9.33488 8.96984 0
    endloop
  endfacet
  facet normal 0.891007 -0.453989 0
    outer loop
      vertex -9.56924 8.50988 10
      vertex -9.33488 8.96984 0
      vertex -9.33488 8.96984 10
    endloop
  endfacet
  facet normal 0.891007 -0.453989 0
    outer loop
      vertex -9.33488 8.96984 0
      vertex -9.56924 8.50988 10
      vertex -9.56924 8.50988 0
    endloop
  endfacet
  facet normal 0.156435 -0.987688 0
    outer loop
      vertex -8.50988 9.56924 0
      vertex -8 9.65 10
      vertex -8.50988 9.56924 10
    endloop
  endfacet
  facet normal 0.156435 -0.987688 0
    outer loop
      vertex -8 9.65 10
      vertex -8.50988 9.56924 0
      vertex -8 9.65 0
    endloop
  endfacet
  facet normal -0.453989 -0.891007 0
    outer loop
      vertex -7.49012 9.56924 0
      vertex -7.03015 9.33488 10
      vertex -7.49012 9.56924 10
    endloop
  endfacet
  facet normal -0.453989 -0.891007 -0
    outer loop
      vertex -7.03015 9.33488 10
      vertex -7.49012 9.56924 0
      vertex -7.03015 9.33488 0
    endloop
  endfacet
  facet normal -0.987688 -0.156435 0
    outer loop
      vertex -6.35 8 0
      vertex -6.43076 8.50988 10
      vertex -6.43076 8.50988 0
    endloop
  endfacet
  facet normal -0.987688 -0.156435 0
    outer loop
      vertex -6.43076 8.50988 10
      vertex -6.35 8 0
      vertex -6.35 8 10
    endloop
  endfacet
  facet normal -0.707107 -0.707107 0
    outer loop
      vertex -6.66512 8.96984 0
      vertex -7.03015 9.33488 10
      vertex -7.03015 9.33488 0
    endloop
  endfacet
  facet normal -0.707107 -0.707107 0
    outer loop
      vertex -7.03015 9.33488 10
      vertex -6.66512 8.96984 0
      vertex -6.66512 8.96984 10
    endloop
  endfacet
  facet normal 0.453989 -0.891007 0
    outer loop
      vertex -8.96984 9.33488 0
      vertex -8.50988 9.56924 10
      vertex -8.96984 9.33488 10
    endloop
  endfacet
  facet normal 0.453989 -0.891007 0
    outer loop
      vertex -8.50988 9.56924 10
      vertex -8.96984 9.33488 0
      vertex -8.50988 9.56924 0
    endloop
  endfacet
  facet normal -0.891007 -0.453989 0
    outer loop
      vertex -6.43076 8.50988 0
      vertex -6.66512 8.96984 10
      vertex -6.66512 8.96984 0
    endloop
  endfacet
  facet normal -0.891007 -0.453989 0
    outer loop
      vertex -6.66512 8.96984 10
      vertex -6.43076 8.50988 0
      vertex -6.43076 8.50988 10
    endloop
  endfacet
  facet normal 0.891007 0.453989 0
    outer loop
      vertex -9.33488 7.03015 10
      vertex -9.56924 7.49012 0
      vertex -9.56924 7.49012 10
    endloop
  endfacet
  facet normal 0.891007 0.453989 0
    outer loop
      vertex -9.56924 7.49012 0
      vertex -9.33488 7.03015 10
      vertex -9.33488 7.03015 0
    endloop
  endfacet
  facet normal -0.453989 0.891007 0
    outer loop
      vertex -7.03015 6.66512 0
      vertex -7.49012 6.43076 10
      vertex -7.03015 6.66512 10
    endloop
  endfacet
  facet normal -0.453989 0.891007 0
    outer loop
      vertex -7.49012 6.43076 10
      vertex -7.03015 6.66512 0
      vertex -7.49012 6.43076 0
    endloop
  endfacet
  facet normal -0.707107 0.707107 0
    outer loop
      vertex -7.03015 6.66512 0
      vertex -6.66512 7.03015 10
      vertex -6.66512 7.03015 0
    endloop
  endfacet
  facet normal -0.707107 0.707107 0
    outer loop
      vertex -6.66512 7.03015 10
      vertex -7.03015 6.66512 0
      vertex -7.03015 6.66512 10
    endloop
  endfacet
  facet normal 0.453989 0.891007 -0
    outer loop
      vertex -8.50988 6.43076 0
      vertex -8.96984 6.66512 10
      vertex -8.50988 6.43076 10
    endloop
  endfacet
  facet normal 0.453989 0.891007 0
    outer loop
      vertex -8.96984 6.66512 10
      vertex -8.50988 6.43076 0
      vertex -8.96984 6.66512 0
    endloop
  endfacet
  facet normal 0.707107 0.707107 0
    outer loop
      vertex -8.96984 6.66512 10
      vertex -9.33488 7.03015 0
      vertex -9.33488 7.03015 10
    endloop
  endfacet
  facet normal 0.707107 0.707107 0
    outer loop
      vertex -9.33488 7.03015 0
      vertex -8.96984 6.66512 10
      vertex -8.96984 6.66512 0
    endloop
  endfacet
  facet normal 0.987688 0.156435 0
    outer loop
      vertex -9.56924 7.49012 10
      vertex -9.65 8 0
      vertex -9.65 8 10
    endloop
  endfacet
  facet normal 0.987688 0.156435 0
    outer loop
      vertex -9.65 8 0
      vertex -9.56924 7.49012 10
      vertex -9.56924 7.49012 0
    endloop
  endfacet
  facet normal 0.156435 0.987688 -0
    outer loop
      vertex -8 6.35 0
      vertex -8.50988 6.43076 10
      vertex -8 6.35 10
    endloop
  endfacet
  facet normal 0.156435 0.987688 0
    outer loop
      vertex -8.50988 6.43076 10
      vertex -8 6.35 0
      vertex -8.50988 6.43076 0
    endloop
  endfacet
  facet normal -0.156435 0.987688 0
    outer loop
      vertex -7.49012 6.43076 0
      vertex -8 6.35 10
      vertex -7.49012 6.43076 10
    endloop
  endfacet
  facet normal -0.156435 0.987688 0
    outer loop
      vertex -8 6.35 10
      vertex -7.49012 6.43076 0
      vertex -8 6.35 0
    endloop
  endfacet
  facet normal 0 -1 0
    outer loop
      vertex -24 -24 0
      vertex 24 -24 10
      vertex -24 -24 10
    endloop
  endfacet
  facet normal 0 -1 -0
    outer loop
      vertex 24 -24 10
      vertex -24 -24 0
      vertex 24 -24 0
    endloop
  endfacet
  facet normal -0.987688 0.156435 0
    outer loop
      vertex 9.56924 -8.50988 0
      vertex 9.65 -8 10
      vertex 9.65 -8 0
    endloop
  endfacet
  facet normal -0.987688 0.156435 0
    outer loop
      vertex 9.65 -8 10
      vertex 9.56924 -8.50988 0
      vertex 9.56924 -8.50988 10
    endloop
  endfacet
  facet normal 0.891007 -0.453989 0
    outer loop
      vertex 6.43076 -7.49012 10
      vertex 6.66512 -7.03015 0
      vertex 6.66512 -7.03015 10
    endloop
  endfacet
  facet normal 0.891007 -0.453989 0
    outer loop
      vertex 6.66512 -7.03015 0
      vertex 6.43076 -7.49012 10
      vertex 6.43076 -7.49012 0
    endloop
  endfacet
  facet normal 0.156435 0.987688 -0
    outer loop
      vertex 8 -9.65 0
      vertex 7.49012 -9.56924 10
      vertex 8 -9.65 10
    endloop
  endfacet
  facet normal 0.156435 0.987688 0
    outer loop
      vertex 7.49012 -9.56924 10
      vertex 8 -9.65 0
      vertex 7.49012 -9.56924 0
    endloop
  endfacet
  facet normal 0.987688 -0.156435 0
    outer loop
      vertex 6.35 -8 10
      vertex 6.43076 -7.49012 0
      vertex 6.43076 -7.49012 10
    endloop
  endfacet
  facet normal 0.987688 -0.156435 0
    outer loop
      vertex 6.43076 -7.49012 0
      vertex 6.35 -8 10
      vertex 6.35 -8 0
    endloop
  endfacet
  facet normal -0.707107 0.707107 0
    outer loop
      vertex 8.96984 -9.33488 0
      vertex 9.33488 -8.96984 10
      vertex 9.33488 -8.96984 0
    endloop
  endfacet
  facet normal -0.707107 0.707107 0
    outer loop
      vertex 9.33488 -8.96984 10
      vertex 8.96984 -9.33488 0
      vertex 8.96984 -9.33488 10
    endloop
  endfacet
  facet normal -0.891007 0.453989 0
    outer loop
      vertex 9.33488 -8.96984 0
      vertex 9.56924 -8.50988 10
      vertex 9.56924 -8.50988 0
    endloop
  endfacet
  facet normal -0.891007 0.453989 0
    outer loop
      vertex 9.56924 -8.50988 10
      vertex 9.33488 -8.96984 0
      vertex 9.33488 -8.96984 10
    endloop
  endfacet
  facet normal -0.156435 0.987688 0
    outer loop
      vertex 8.50988 -9.56924 0
      vertex 8 -9.65 10
      vertex 8.50988 -9.56924 10
    endloop
  endfacet
  facet normal -0.156435 0.987688 0
    outer loop
      vertex 8 -9.65 10
      vertex 8.50988 -9.56924 0
      vertex 8 -9.65 0
    endloop
  endfacet
  facet normal 0.453989 0.891007 -0
    outer loop
      vertex 7.49012 -9.56924 0
      vertex 7.03015 -9.33488 10
      vertex 7.49012 -9.56924 10
    endloop
  endfacet
  facet normal 0.453989 0.891007 0
    outer loop
      vertex 7.03015 -9.33488 10
      vertex 7.49012 -9.56924 0
      vertex 7.03015 -9.33488 0
    endloop
  endfacet
  facet normal 0.987688 0.156435 0
    outer loop
      vertex 6.43076 -8.50988 10
      vertex 6.35 -8 0
      vertex 6.35 -8 10
    endloop
  endfacet
  facet normal 0.987688 0.156435 0
    outer loop
      vertex 6.35 -8 0
      vertex 6.43076 -8.50988 10
      vertex 6.43076 -8.50988 0
    endloop
  endfacet
  facet normal 0.707107 0.707107 0
    outer loop
      vertex 7.03015 -9.33488 10
      vertex 6.66512 -8.96984 0
      vertex 6.66512 -8.96984 10
    endloop
  endfacet
  facet normal 0.707107 0.707107 0
    outer loop
      vertex 6.66512 -8.96984 0
      vertex 7.03015 -9.33488 10
      vertex 7.03015 -9.33488 0
    endloop
  endfacet
  facet normal -0.453989 0.891007 0
    outer loop
      vertex 8.96984 -9.33488 0
      vertex 8.50988 -9.56924 10
      vertex 8.96984 -9.33488 10
    endloop
  endfacet
  facet normal -0.453989 0.891007 0
    outer loop
      vertex 8.50988 -9.56924 10
      vertex 8.96984 -9.33488 0
      vertex 8.50988 -9.56924 0
    endloop
  endfacet
  facet normal 0.891007 0.453989 0
    outer loop
      vertex 6.66512 -8.96984 10
      vertex 6.43076 -8.50988 0
      vertex 6.43076 -8.50988 10
    endloop
  endfacet
  facet normal 0.891007 0.453989 0
    outer loop
      vertex 6.43076 -8.50988 0
      vertex 6.66512 -8.96984 10
      vertex 6.66512 -8.96984 0
    endloop
  endfacet
  facet normal -0.891007 -0.453989 0
    outer loop
      vertex 9.56924 -7.49012 0
      vertex 9.33488 -7.03015 10
      vertex 9.33488 -7.03015 0
    endloop
  endfacet
  facet normal -0.891007 -0.453989 0
    outer loop
      vertex 9.33488 -7.03015 10
      vertex 9.56924 -7.49012 0
      vertex 9.56924 -7.49012 10
    endloop
  endfacet
  facet normal 0.453989 -0.891007 0
    outer loop
      vertex 7.03015 -6.66512 0
      vertex 7.49012 -6.43076 10
      vertex 7.03015 -6.66512 10
    endloop
  endfacet
  facet normal 0.453989 -0.891007 0
    outer loop
      vertex 7.49012 -6.43076 10
      vertex 7.03015 -6.66512 0
      vertex 7.49012 -6.43076 0
    endloop
  endfacet
  facet normal 0.707107 -0.707107 0
    outer loop
      vertex 6.66512 -7.03015 10
      vertex 7.03015 -6.66512 0
      vertex 7.03015 -6.66512 10
    endloop
  endfacet
  facet normal 0.707107 -0.707107 0
    outer loop
      vertex 7.03015 -6.66512 0
      vertex 6.66512 -7.03015 10
      vertex 6.66512 -7.03015 0
    endloop
  endfacet
  facet normal -0.453989 -0.891007 0
    outer loop
      vertex 8.50988 -6.43076 0
      vertex 8.96984 -6.66512 10
      vertex 8.50988 -6.43076 10
    endloop
  endfacet
  facet normal -0.453989 -0.891007 -0
    outer loop
      vertex 8.96984 -6.66512 10
      vertex 8.50988 -6.43076 0
      vertex 8.96984 -6.66512 0
    endloop
  endfacet
  facet normal -0.707107 -0.707107 0
    outer loop
      vertex 9.33488 -7.03015 0
      vertex 8.96984 -6.66512 10
      vertex 8.96984 -6.66512 0
    endloop
  endfacet
  facet normal -0.707107 -0.707107 0
    outer loop
      vertex 8.96984 -6.66512 10
      vertex 9.33488 -7.03015 0
      vertex 9.33488 -7.03015 10
    endloop
  endfacet
  facet normal -0.987688 -0.156435 0
    outer loop
      vertex 9.65 -8 0
      vertex 9.56924 -7.49012 10
      vertex 9.56924 -7.49012 0
    endloop
  endfacet
  facet normal -0.987688 -0.156435 0
    outer loop
      vertex 9.56924 -7.49012 10
      vertex 9.65 -8 0
      vertex 9.65 -8 10
    endloop
  endfacet
  facet normal -0.156435 -0.987688 0
    outer loop
      vertex 8 -6.35 0
      vertex 8.50988 -6.43076 10
      vertex 8 -6.35 10
    endloop
  endfacet
  facet normal -0.156435 -0.987688 -0
    outer loop
      vertex 8.50988 -6.43076 10
      vertex 8 -6.35 0
      vertex 8.50988 -6.43076 0
    endloop
  endfacet
  facet normal 0.156435 -0.987688 0
    outer loop
      vertex 7.49012 -6.43076 0
      vertex 8 -6.35 10
      vertex 7.49012 -6.43076 10
    endloop
  endfacet
  facet normal 0.156435 -0.987688 0
    outer loop
      vertex 8 -6.35 10
      vertex 7.49012 -6.43076 0
      vertex 8 -6.35 0
    endloop
  endfacet
  facet normal 0.987688 0.156435 0
    outer loop
      vertex -9.56924 -8.50988 10
      vertex -9.65 -8 0
      vertex -9.65 -8 10
    endloop
  endfacet
  facet normal 0.987688 0.156435 0
    outer loop
      vertex -9.65 -8 0
      vertex -9.56924 -8.50988 10
      vertex -9.56924 -8.50988 0
    endloop
  endfacet
  facet normal -0.891007 -0.453989 0
    outer loop
      vertex -6.43076 -7.49012 0
      vertex -6.66512 -7.03015 10
      vertex -6.66512 -7.03015 0
    endloop
  endfacet
  facet normal -0.891007 -0.453989 0
    outer loop
      vertex -6.66512 -7.03015 10
      vertex -6.43076 -7.49012 0
      vertex -6.43076 -7.49012 10
    endloop
  endfacet
  facet normal -0.156435 0.987688 0
    outer loop
      vertex -7.49012 -9.56924 0
      vertex -8 -9.65 10
      vertex -7.49012 -9.56924 10
    endloop
  endfacet
  facet normal -0.156435 0.987688 0
    outer loop
      vertex -8 -9.65 10
      vertex -7.49012 -9.56924 0
      vertex -8 -9.65 0
    endloop
  endfacet
  facet normal -0.987688 -0.156435 0
    outer loop
      vertex -6.35 -8 0
      vertex -6.43076 -7.49012 10
      vertex -6.43076 -7.49012 0
    endloop
  endfacet
  facet normal -0.987688 -0.156435 0
    outer loop
      vertex -6.43076 -7.49012 10
      vertex -6.35 -8 0
      vertex -6.35 -8 10
    endloop
  endfacet
  facet normal 0.707107 0.707107 0
    outer loop
      vertex -8.96984 -9.33488 10
      vertex -9.33488 -8.96984 0
      vertex -9.33488 -8.96984 10
    endloop
  endfacet
  facet normal 0.707107 0.707107 0
    outer loop
      vertex -9.33488 -8.96984 0
      vertex -8.96984 -9.33488 10
      vertex -8.96984 -9.33488 0
    endloop
  endfacet
  facet normal 0.891007 0.453989 0
    outer loop
      vertex -9.33488 -8.96984 10
      vertex -9.56924 -8.50988 0
      vertex -9.56924 -8.50988 10
    endloop
  endfacet
  facet normal 0.891007 0.453989 0
    outer loop
      vertex -9.56924 -8.50988 0
      vertex -9.33488 -8.96984 10
      vertex -9.33488 -8.96984 0
    endloop
  endfacet
  facet normal 0.156435 0.987688 -0
    outer loop
      vertex -8 -9.65 0
      vertex -8.50988 -9.56924 10
      vertex -8 -9.65 10
    endloop
  endfacet
  facet normal 0.156435 0.987688 0
    outer loop
      vertex -8.50988 -9.56924 10
      vertex -8 -9.65 0
      vertex -8.50988 -9.56924 0
    endloop
  endfacet
  facet normal -0.453989 0.891007 0
    outer loop
      vertex -7.03015 -9.33488 0
      vertex -7.49012 -9.56924 10
      vertex -7.03015 -9.33488 10
    endloop
  endfacet
  facet normal -0.453989 0.891007 0
    outer loop
      vertex -7.49012 -9.56924 10
      vertex -7.03015 -9.33488 0
      vertex -7.49012 -9.56924 0
    endloop
  endfacet
  facet normal -0.987688 0.156435 0
    outer loop
      vertex -6.43076 -8.50988 0
      vertex -6.35 -8 10
      vertex -6.35 -8 0
    endloop
  endfacet
  facet normal -0.987688 0.156435 0
    outer loop
      vertex -6.35 -8 10
      vertex -6.43076 -8.50988 0
      vertex -6.43076 -8.50988 10
    endloop
  endfacet
  facet normal -0.707107 0.707107 0
    outer loop
      vertex -7.03015 -9.33488 0
      vertex -6.66512 -8.96984 10
      vertex -6.66512 -8.96984 0
    endloop
  endfacet
  facet normal -0.707107 0.707107 0
    outer loop
      vertex -6.66512 -8.96984 10
      vertex -7.03015 -9.33488 0
      vertex -7.03015 -9.33488 10
    endloop
  endfacet
  facet normal 0.453989 0.891007 -0
    outer loop
      vertex -8.50988 -9.56924 0
      vertex -8.96984 -9.33488 10
      vertex -8.50988 -9.56924 10
    endloop
  endfacet
  facet normal 0.453989 0.891007 0
    outer loop
      vertex -8.96984 -9.33488 10
      vertex -8.50988 -9.56924 0
      vertex -8.96984 -9.33488 0
    endloop
  endfacet
  facet normal -0.891007 0.453989 0
    outer loop
      vertex -6.66512 -8.96984 0
      vertex -6.43076 -8.50988 10
      vertex -6.43076 -8.50988 0
    endloop
  endfacet
  facet normal -0.891007 0.453989 0
    outer loop
      vertex -6.43076 -8.50988 10
      vertex -6.66512 -8.96984 0
      vertex -6.66512 -8.96984 10
    endloop
  endfacet
  facet normal 0.891007 -0.453989 0
    outer loop
      vertex -9.56924 -7.49012 10
      vertex -9.33488 -7.03015 0
      vertex -9.33488 -7.03015 10
    endloop
  endfacet
  facet normal 0.891007 -0.453989 0
    outer loop
      vertex -9.33488 -7.03015 0
      vertex -9.56924 -7.49012 10
      vertex -9.56924 -7.49012 0
    endloop
  endfacet
  facet normal -0.453989 -0.891007 0
    outer loop
      vertex -7.49012 -6.43076 0
      vertex -7.03015 -6.66512 10
      vertex -7.49012 -6.43076 10
    endloop
  endfacet
  facet normal -0.453989 -0.891007 -0
    outer loop
      vertex -7.03015 -6.66512 10
      vertex -7.49012 -6.43076 0
      vertex -7.03015 -6.66512 0
    endloop
  endfacet
  facet normal -0.707107 -0.707107 0
    outer loop
      vertex -6.66512 -7.03015 0
      vertex -7.03015 -6.66512 10
      vertex -7.03015 -6.66512 0
    endloop
  endfacet
  facet normal -0.707107 -0.707107 0
    outer loop
      vertex -7.03015 -6.66512 10
      vertex -6.66512 -7.03015 0
      vertex -6.66512 -7.03015 10
    endloop
  endfacet
  facet normal 0.453989 -0.891007 0
    outer loop
      vertex -8.96984 -6.66512 0
      vertex -8.50988 -6.43076 10
      vertex -8.96984 -6.66512 10
    endloop
  endfacet
  facet normal 0.453989 -0.891007 0
    outer loop
      vertex -8.50988 -6.43076 10
      vertex -8.96984 -6.66512 0
      vertex -8.50988 -6.43076 0
    endloop
  endfacet
  facet normal 0.707107 -0.707107 0
    outer loop
      vertex -9.33488 -7.03015 10
      vertex -8.96984 -6.66512 0
      vertex -8.96984 -6.66512 10
    endloop
  endfacet
  facet normal 0.707107 -0.707107 0
    outer loop
      vertex -8.96984 -6.66512 0
      vertex -9.33488 -7.03015 10
      vertex -9.33488 -7.03015 0
    endloop
  endfacet
  facet normal 0.987688 -0.156435 0
    outer loop
      vertex -9.65 -8 10
      vertex -9.56924 -7.49012 0
      vertex -9.56924 -7.49012 10
    endloop
  endfacet
  facet normal 0.987688 -0.156435 0
    outer loop
      vertex -9.56924 -7.49012 0
      vertex -9.65 -8 10
      vertex -9.65 -8 0
    endloop
  endfacet
  facet normal 0.156435 -0.987688 0
    outer loop
      vertex -8.50988 -6.43076 0
      vertex -8 -6.35 10
      vertex -8.50988 -6.43076 10
    endloop
  endfacet
  facet normal 0.156435 -0.987688 0
    outer loop
      vertex -8 -6.35 10
      vertex -8.50988 -6.43076 0
      vertex -8 -6.35 0
    endloop
  endfacet
  facet normal -0.156435 -0.987688 0
    outer loop
      vertex -8 -6.35 0
      vertex -7.49012 -6.43076 10
      vertex -8 -6.35 10
    endloop
  endfacet
  facet normal -0.156435 -0.987688 -0
    outer loop
      vertex -7.49012 -6.43076 10
      vertex -8 -6.35 0
      vertex -7.49012 -6.43076 0
    endloop
  endfacet
endsolid OpenSCAD_Model
